<svg xmlns="http://www.w3.org/2000/svg" width="261.257" height="72.772" viewBox="0 0 261.257 72.772"><defs><style>.a{fill:#ff5541;}.a,.c{fill-rule:evenodd;}.b,.c{fill:#616161;}</style></defs><g transform="translate(0)"><g transform="translate(0 0)"><path class="a" d="M4904.96,3885.371h.905l-.256.15c-.221.131-.437.267-.649.405Zm18.7,0h36.9V3919.2a9.076,9.076,0,0,1-1.392,5.411,4.621,4.621,0,0,1-3.994,1.937c-1.913,0-3.281-.532-4.092-1.6s-1.223-2.772-1.223-5.145H4937.36q0,7.808,4.685,12.069a14.253,14.253,0,0,0,1.806,1.4h-24.87q.492-.24.973-.5a23.22,23.22,0,0,0,9.55-9.648,30.994,30.994,0,0,0,3.354-14.828v-4.575a24.971,24.971,0,0,0-2.373-10.834,17.313,17.313,0,0,0-6.44-7.275c-.129-.08-.259-.158-.39-.234Zm49.317,0h21.405l-17.57,47.894h-11.231a15.417,15.417,0,0,0,5.108-5.257,16.942,16.942,0,0,0,2.288-8.8Zm34.281,0h38.878q-.664.34-1.3.731a20.056,20.056,0,0,0-7.711,8.764,30.91,30.91,0,0,0-2.7,13.315l.036,4.467q.437,11.076,6.488,17.274a19.621,19.621,0,0,0,4.313,3.344h-20.3l-17.7-47.895Zm60.926,0H5095.7q-.76.382-1.492.827a20.676,20.676,0,0,0-7.977,8.958,30.546,30.546,0,0,0-2.785,13.4v2.905a29.632,29.632,0,0,0,2.99,12.952,20.744,20.744,0,0,0,7.965,8.679q.148.088.3.173h-23.122a18.143,18.143,0,0,0,6.12-4.24v-21.22h-21.111v8.57h8.655v8q-2.379,2.161-7.227,2.167-5.683,0-8.316-3.886-2.651-3.867-2.651-11.608v-3.111c.024-4.914.9-8.691,2.591-11.342a8.123,8.123,0,0,1,7.239-3.97,8.952,8.952,0,0,1,6.028,1.84c1.416,1.235,2.336,3.281,2.76,6.162h12q-.89-8.752-6.234-13.17a16.528,16.528,0,0,0-3.245-2.086Zm48.134,0h13.105v7.982h15.216v39.913H5117.4q.229-.132.456-.27a20.707,20.707,0,0,0,7.965-8.97,30.521,30.521,0,0,0,2.8-13.376v-2.372a29.837,29.837,0,0,0-2.88-13.231,21.161,21.161,0,0,0-8-8.885q-.7-.424-1.424-.791Zm46.815,7.982v39.913h-6.038v-39.913Zm-151.423,39.913h-21.721l2.318-7.521h17.056l2.347,7.521Zm-106.746-6.726v-9.195a15.439,15.439,0,0,0,7.113,1.573,12.644,12.644,0,0,0,8.655-3.474q-1.38,10.459-13.727,11.064l-2.042.033Zm10.346-16.265a5.827,5.827,0,0,0,5.6-3.365v-4.951q0-4.956-1.67-7.323a5.225,5.225,0,0,0-4.5-2.373,4.948,4.948,0,0,0-4.225,2.687,12.023,12.023,0,0,0-1.694,6.513,10.792,10.792,0,0,0,1.73,6.428,5.59,5.59,0,0,0,4.758,2.385Zm79.976,5.883h11.1l-5.568-17.927Z" transform="translate(-4904.386 -3885.37)"/><path class="b" d="M4895.659,5687.97h-5.825v4.349h6.809v1.975h-9.273V5680.11h9.2v1.995h-6.739v3.91h5.825Z" transform="translate(-4887.37 -5621.521)"/><path class="b" d="M5509.321,5694.293h-2.467l-6.32-10.063v10.063h-2.464V5680.11h2.464l6.34,10.1v-10.1h2.447Z" transform="translate(-5478.134 -5621.521)"/><path class="b" d="M6168.911,5682.1h-4.422v12.188h-2.447V5682.1h-4.382v-1.995h11.251Z" transform="translate(-6116.192 -5621.521)"/><path class="b" d="M6832.769,5687.97h-5.825v4.349h6.81v1.975h-9.273V5680.11h9.2v1.995h-6.739v3.91h5.825Z" transform="translate(-6761.244 -5621.521)"/><path class="b" d="M7440.39,5688.847h-2.746v5.446h-2.464V5680.11h4.987a5.794,5.794,0,0,1,3.787,1.1,3.9,3.9,0,0,1,1.336,3.188,4,4,0,0,1-.688,2.387,4.379,4.379,0,0,1-1.915,1.479l3.186,5.9v.126h-2.641l-2.842-5.446Zm-2.746-1.994h2.53a2.813,2.813,0,0,0,1.948-.629,2.182,2.182,0,0,0,.7-1.715,2.332,2.332,0,0,0-.648-1.762,2.742,2.742,0,0,0-1.932-.642h-2.6Z" transform="translate(-7352.007 -5621.521)"/><path class="b" d="M8047.251,5682.1h-4.422v12.188h-2.447V5682.1H8036v-1.995h11.251Z" transform="translate(-7933.214 -5621.521)"/><path class="b" d="M8637.363,5691h-5.492l-1.15,3.291h-2.561l5.356-14.183h2.211l5.366,14.183h-2.57Zm-4.8-2h4.109l-2.055-5.888Z" transform="translate(-8506.043 -5621.521)"/><path class="b" d="M9345.713,5694.293h-2.453V5680.11h2.453Z" transform="translate(-9197.798 -5621.521)"/><path class="b" d="M9787.582,5694.293h-2.469l-6.32-10.063v10.063h-2.463V5680.11h2.463l6.34,10.1v-10.1h2.449Z" transform="translate(-9616.73 -5621.521)"/><path class="b" d="M10478.5,5680.11l4.09,10.872,4.08-10.872h3.188v14.183h-2.459v-4.674l.248-6.254-4.187,10.928h-1.768l-4.175-10.918.242,6.244v4.674h-2.455V5680.11Z" transform="translate(-10292.883 -5621.521)"/><path class="b" d="M11283.789,5687.97h-5.828v4.349h6.81v1.975h-9.271V5680.11h9.2v1.995h-6.741v3.91h5.828Z" transform="translate(-11066.961 -5621.521)"/><path class="b" d="M11897.449,5694.293h-2.465l-6.323-10.063v10.063h-2.461V5680.11h2.461l6.343,10.1v-10.1h2.445Z" transform="translate(-11657.725 -5621.521)"/><path class="b" d="M12557.049,5682.1h-4.42v12.188h-2.448V5682.1h-4.381v-1.995h11.249Z" transform="translate(-12295.792 -5621.521)"/><path class="c" d="M10831.1,4256.7c0,7.452-.09,15.429.012,22.817l4.621-2.914c1.594-.995,3.117-2.02,4.662-2.992,1.578-.993,3.113-2.006,4.654-3,.8-.515,1.555-.978,2.34-1.489a17.068,17.068,0,0,0,2.285-1.572l-16.165-10.355c-.415-.259-.771-.465-1.182-.733a6.155,6.155,0,0,0-1.225-.737Z" transform="translate(-10637.034 -4243.64)"/></g></g></svg>
